Cantarell_Sketch2-Regular_20180527.ufo
<glyph name="numbersign" format="1">
  <advance width="667"/>
  <unicode hex="0023"/>
  <outline>
    <contour>
      <point x="497" y="0" type="line"/>
      <point x="497" y="694" type="line"/>
      <point x="428" y="694" type="line"/>
      <point x="428" y="0" type="line"/>
    </contour>
    <contour>
      <point x="626" y="181" type="line"/>
      <point x="626" y="244" type="line"/>
      <point x="41" y="244" type="line"/>
      <point x="41" y="181" type="line"/>
    </contour>
    <contour>
      <point x="242" y="0" type="line"/>
      <point x="242" y="694" type="line"/>
      <point x="173" y="694" type="line"/>
      <point x="173" y="0" type="line"/>
    </contour>
    <contour>
      <point x="626" y="452" type="line"/>
      <point x="626" y="515" type="line"/>
      <point x="41" y="515" type="line"/>
      <point x="41" y="452" type="line"/>
    </contour>
  </outline>
</glyph>
<glyph name="ampersand" format="1">
  <advance width="716"/>
  <unicode hex="0026"/>
  <outline>
    <contour>
      <point x="641" y="50" type="line"/>
      <point x="306" y="326"/>
      <point x="229" y="415"/>
      <point x="229" y="524" type="curve" smooth="yes"/>
      <point x="229" y="598"/>
      <point x="264" y="638"/>
      <point x="326" y="638" type="curve" smooth="yes"/>
      <point x="384" y="638"/>
      <point x="426" y="602"/>
      <point x="426" y="553" type="curve" smooth="yes"/>
      <point x="426" y="401"/>
      <point x="76" y="426"/>
      <point x="76" y="187" type="curve" smooth="yes"/>
      <point x="76" y="69"/>
      <point x="163" y="-12"/>
      <point x="287" y="-12" type="curve" smooth="yes"/>
      <point x="428" y="-12"/>
      <point x="564" y="95"/>
      <point x="643" y="277" type="curve"/>
      <point x="582" y="313" type="line"/>
      <point x="498" y="141"/>
      <point x="400" y="57"/>
      <point x="297" y="57" type="curve" smooth="yes"/>
      <point x="214" y="57"/>
      <point x="154" y="114"/>
      <point x="154" y="194" type="curve" smooth="yes"/>
      <point x="154" y="388"/>
      <point x="502" y="353"/>
      <point x="502" y="554" type="curve" smooth="yes"/>
      <point x="502" y="643"/>
      <point x="434" y="704"/>
      <point x="335" y="704" type="curve" smooth="yes"/>
      <point x="225" y="704"/>
      <point x="153" y="630"/>
      <point x="153" y="517" type="curve" smooth="yes"/>
      <point x="153" y="386"/>
      <point x="249" y="274"/>
      <point x="590" y="-10" type="curve"/>
    </contour>
  </outline>
</glyph>
<glyph name="slash" format="1">
  <advance width="338"/>
  <unicode hex="002F"/>
  <outline>
    <contour>
      <point x="99" y="-115" type="line"/>
      <point x="313" y="739" type="line"/>
      <point x="233" y="739" type="line"/>
      <point x="25" y="-115" type="line"/>
    </contour>
  </outline>
</glyph>
<glyph name="equal" format="1">
  <advance width="719"/>
  <unicode hex="003D"/>
  <outline>
    <contour>
      <point x="592" y="406" type="line"/>
      <point x="592" y="475" type="line"/>
      <point x="127" y="475" type="line"/>
      <point x="127" y="406" type="line"/>
    </contour>
    <contour>
      <point x="592" y="166" type="line"/>
      <point x="592" y="235" type="line"/>
      <point x="127" y="235" type="line"/>
      <point x="127" y="166" type="line"/>
    </contour>
  </outline>
</glyph>
<glyph name="D" format="1">
  <advance width="737"/>
  <unicode hex="0044"/>
  <note>
    D
  </note>
  <outline>
    <contour>
      <point x="318" y="0" type="line" smooth="yes"/>
      <point x="528" y="0"/>
      <point x="671" y="137"/>
      <point x="671" y="360" type="curve" smooth="yes"/>
      <point x="671" y="570"/>
      <point x="545" y="694"/>
      <point x="333" y="694" type="curve" smooth="yes"/>
      <point x="106" y="694" type="line"/>
      <point x="106" y="0" type="line"/>
    </contour>
    <contour>
      <point x="189" y="622" type="line"/>
      <point x="323" y="622" type="line" smooth="yes"/>
      <point x="492" y="622"/>
      <point x="586" y="523"/>
      <point x="586" y="347" type="curve" smooth="yes"/>
      <point x="586" y="172"/>
      <point x="493" y="72"/>
      <point x="328" y="72" type="curve" smooth="yes"/>
      <point x="189" y="72" type="line"/>
    </contour>
    <contour>
      <point x="173" y="347" type="move" name="center"/>
    </contour>
    <contour>
      <point x="336" y="0" type="move" name="bottom"/>
    </contour>
    <contour>
      <point x="336" y="694" type="move" name="top"/>
    </contour>
  </outline>
</glyph>
<glyph name="N" format="1">
  <advance width="778"/>
  <unicode hex="004E"/>
  <note>
    N
  </note>
  <outline>
    <contour>
      <point x="184" y="0" type="line"/>
      <point x="184" y="605" type="line"/>
      <point x="169" y="605" type="line"/>
      <point x="580" y="0" type="line"/>
      <point x="672" y="0" type="line"/>
      <point x="672" y="694" type="line"/>
      <point x="594" y="694" type="line"/>
      <point x="594" y="87" type="line"/>
      <point x="610" y="87" type="line"/>
      <point x="201" y="694" type="line"/>
      <point x="106" y="694" type="line"/>
      <point x="106" y="0" type="line"/>
    </contour>
    <contour>
      <point x="389" y="694" type="move" name="top"/>
    </contour>
    <contour>
      <point x="389" y="0" type="move" name="bottom"/>
    </contour>
  </outline>
</glyph>
<glyph name="V" format="1">
  <advance width="657"/>
  <unicode hex="0056"/>
  <note>
    V
  </note>
  <outline>
    <contour>
      <point x="369" y="0" type="line"/>
      <point x="622" y="694" type="line"/>
      <point x="538" y="694" type="line"/>
      <point x="307" y="29" type="line"/>
      <point x="357" y="29" type="line"/>
      <point x="130" y="694" type="line"/>
      <point x="35" y="694" type="line"/>
      <point x="288" y="0" type="line"/>
    </contour>
    <contour>
      <point x="329" y="694" type="move" name="top"/>
    </contour>
    <contour>
      <point x="329" y="0" type="move" name="bottom"/>
    </contour>
  </outline>
</glyph>
<glyph name="Y" format="1">
  <advance width="610"/>
  <unicode hex="0059"/>
  <note>
    Y
  </note>
  <outline>
    <contour>
      <point x="349" y="0" type="line"/>
      <point x="349" y="299" type="line"/>
      <point x="589" y="694" type="line"/>
      <point x="498" y="694" type="line"/>
      <point x="305" y="362" type="line"/>
      <point x="316" y="362" type="line"/>
      <point x="118" y="694" type="line"/>
      <point x="21" y="694" type="line"/>
      <point x="266" y="299" type="line"/>
      <point x="266" y="0" type="line"/>
    </contour>
    <contour>
      <point x="311" y="694" type="move" name="top"/>
    </contour>
    <contour>
      <point x="311" y="0" type="move" name="bottom"/>
    </contour>
    <contour>
      <point x="33" y="694" type="move" name="topleft"/>
    </contour>
  </outline>
</glyph>
<glyph name="d" format="1">
  <advance width="574"/>
  <unicode hex="0064"/>
  <note>
    d
  </note>
  <outline>
    <contour>
      <point x="489" y="0" type="line"/>
      <point x="489" y="739" type="line"/>
      <point x="409" y="739" type="line"/>
      <point x="409" y="56" type="line"/>
      <point x="433" y="0" type="line"/>
    </contour>
    <contour>
      <point x="350" y="-10"/>
      <point x="413" y="30"/>
      <point x="450" y="96" type="curve"/>
      <point x="421" y="132" type="line"/>
      <point x="394" y="87"/>
      <point x="349" y="60"/>
      <point x="292" y="60" type="curve" smooth="yes"/>
      <point x="196" y="60"/>
      <point x="134" y="135"/>
      <point x="134" y="246" type="curve" smooth="yes"/>
      <point x="134" y="352"/>
      <point x="190" y="422"/>
      <point x="283" y="422" type="curve" smooth="yes"/>
      <point x="344" y="422"/>
      <point x="392" y="394"/>
      <point x="420" y="346" type="curve"/>
      <point x="457" y="390" type="line"/>
      <point x="422" y="455"/>
      <point x="360" y="492"/>
      <point x="280" y="492" type="curve" smooth="yes"/>
      <point x="144" y="492"/>
      <point x="54" y="390"/>
      <point x="54" y="237" type="curve" smooth="yes"/>
      <point x="54" y="89"/>
      <point x="140" y="-10"/>
      <point x="269" y="-10" type="curve" smooth="yes"/>
    </contour>
    <contour>
      <point x="489" y="0" type="line"/>
      <point x="489" y="739" type="line"/>
      <point x="409" y="739" type="line"/>
      <point x="409" y="56" type="line"/>
      <point x="433" y="0" type="line"/>
    </contour>
    <contour>
      <point x="350" y="-10"/>
      <point x="413" y="30"/>
      <point x="450" y="96" type="curve"/>
      <point x="421" y="132" type="line"/>
      <point x="394" y="87"/>
      <point x="349" y="60"/>
      <point x="292" y="60" type="curve" smooth="yes"/>
      <point x="196" y="60"/>
      <point x="134" y="135"/>
      <point x="134" y="246" type="curve" smooth="yes"/>
      <point x="134" y="352"/>
      <point x="190" y="422"/>
      <point x="283" y="422" type="curve" smooth="yes"/>
      <point x="344" y="422"/>
      <point x="392" y="394"/>
      <point x="420" y="346" type="curve"/>
      <point x="457" y="390" type="line"/>
      <point x="422" y="455"/>
      <point x="360" y="492"/>
      <point x="280" y="492" type="curve" smooth="yes"/>
      <point x="144" y="492"/>
      <point x="54" y="390"/>
      <point x="54" y="237" type="curve" smooth="yes"/>
      <point x="54" y="89"/>
      <point x="140" y="-10"/>
      <point x="269" y="-10" type="curve" smooth="yes"/>
    </contour>
    <contour>
      <point x="289" y="0" type="move" name="bottom"/>
    </contour>
    <contour>
      <point x="289" y="482" type="move" name="top"/>
    </contour>
    <contour>
      <point x="570" y="482" type="move" name="topright"/>
    </contour>
    <contour>
      <point x="414" y="598" type="move" name="center"/>
    </contour>
  </outline>
</glyph>
<glyph name="t" format="1">
  <advance width="365"/>
  <unicode hex="0074"/>
  <note>
    t
  </note>
  <outline>
    <contour>
      <point x="275" y="-5"/>
      <point x="308" y="3"/>
      <point x="331" y="13" type="curve"/>
      <point x="313" y="71" type="line"/>
      <point x="298" y="64"/>
      <point x="276" y="60"/>
      <point x="259" y="60" type="curve" smooth="yes"/>
      <point x="209" y="60"/>
      <point x="176" y="92"/>
      <point x="176" y="140" type="curve" smooth="yes"/>
      <point x="176" y="623" type="line"/>
      <point x="96" y="623" type="line"/>
      <point x="96" y="129" type="line" smooth="yes"/>
      <point x="96" y="49"/>
      <point x="154" y="-5"/>
      <point x="242" y="-5" type="curve" smooth="yes"/>
    </contour>
    <contour>
      <point x="308" y="415" type="line"/>
      <point x="308" y="482" type="line"/>
      <point x="31" y="482" type="line"/>
      <point x="31" y="415" type="line"/>
    </contour>
    <contour>
      <point x="205" y="5" type="move" name="bottom"/>
    </contour>
    <contour>
      <point x="133" y="623" type="move" name="top"/>
    </contour>
    <contour>
      <point x="300" y="482" type="move" name="topright"/>
    </contour>
    <contour>
      <point x="169" y="246" type="move" name="center"/>
    </contour>
  </outline>
</glyph>
<glyph name="v" format="1">
  <advance width="508"/>
  <unicode hex="0076"/>
  <note>
    v
  </note>
  <outline>
    <contour>
      <point x="294" y="0" type="line"/>
      <point x="482" y="482" type="line"/>
      <point x="402" y="482" type="line"/>
      <point x="235" y="16" type="line"/>
      <point x="279" y="16" type="line"/>
      <point x="115" y="482" type="line"/>
      <point x="26" y="482" type="line"/>
      <point x="216" y="0" type="line"/>
    </contour>
    <contour>
      <point x="254" y="482" type="move" name="top"/>
    </contour>
    <contour>
      <point x="254" y="0" type="move" name="bottom"/>
    </contour>
  </outline>
</glyph>
<glyph name="sterling" format="1">
  <advance width="645"/>
  <unicode hex="00A3"/>
  <outline>
    <contour>
      <point x="567" y="0" type="line"/>
      <point x="567" y="72" type="line"/>
      <point x="180" y="72" type="line"/>
      <point x="224" y="90"/>
      <point x="240" y="145"/>
      <point x="240" y="208" type="curve" smooth="yes"/>
      <point x="240" y="491" type="line" smooth="yes"/>
      <point x="240" y="577"/>
      <point x="291" y="631"/>
      <point x="399" y="631" type="curve" smooth="yes"/>
      <point x="437" y="631"/>
      <point x="475" y="624"/>
      <point x="516" y="612" type="curve"/>
      <point x="540" y="681" type="line"/>
      <point x="498" y="697"/>
      <point x="458" y="704"/>
      <point x="411" y="704" type="curve" smooth="yes"/>
      <point x="243" y="704"/>
      <point x="163" y="615"/>
      <point x="163" y="481" type="curve" smooth="yes"/>
      <point x="163" y="198" type="line" smooth="yes"/>
      <point x="163" y="141"/>
      <point x="138" y="90"/>
      <point x="85" y="72" type="curve"/>
      <point x="85" y="0" type="line"/>
    </contour>
    <contour>
      <point x="458" y="318" type="line"/>
      <point x="458" y="378" type="line"/>
      <point x="93" y="378" type="line"/>
      <point x="93" y="318" type="line"/>
    </contour>
  </outline>
</glyph>
<glyph name="plusminus" format="1">
  <advance width="641"/>
  <unicode hex="00B1"/>
  <outline>
    <contour>
      <point x="357" y="147" type="line"/>
      <point x="357" y="623" type="line"/>
      <point x="287" y="623" type="line"/>
      <point x="287" y="147" type="line"/>
    </contour>
    <contour>
      <point x="557" y="39" type="line"/>
      <point x="557" y="104" type="line"/>
      <point x="88" y="104" type="line"/>
      <point x="88" y="39" type="line"/>
    </contour>
    <contour>
      <point x="557" y="355" type="line"/>
      <point x="557" y="424" type="line"/>
      <point x="88" y="424" type="line"/>
      <point x="88" y="355" type="line"/>
    </contour>
  </outline>
</glyph>
<glyph name="AE" format="1">
  <advance width="986"/>
  <unicode hex="00C6"/>
  <outline>
    <contour>
      <point x="132" y="0" type="line"/>
      <point x="546" y="694" type="line"/>
      <point x="463" y="694" type="line"/>
      <point x="40" y="0" type="line"/>
    </contour>
    <contour>
      <point x="536" y="202" type="line"/>
      <point x="536" y="282" type="line"/>
      <point x="260" y="282" type="line"/>
      <point x="260" y="202" type="line"/>
    </contour>
    <contour>
      <point x="570" y="0" type="line"/>
      <point x="570" y="694" type="line"/>
      <point x="487" y="694" type="line"/>
      <point x="487" y="0" type="line"/>
    </contour>
    <contour>
      <point x="923" y="0" type="line"/>
      <point x="923" y="72" type="line"/>
      <point x="527" y="72" type="line"/>
      <point x="527" y="0" type="line"/>
    </contour>
    <contour>
      <point x="896" y="323" type="line"/>
      <point x="896" y="395" type="line"/>
      <point x="527" y="395" type="line"/>
      <point x="527" y="323" type="line"/>
    </contour>
    <contour>
      <point x="923" y="622" type="line"/>
      <point x="923" y="694" type="line"/>
      <point x="527" y="694" type="line"/>
      <point x="527" y="622" type="line"/>
    </contour>
    <contour>
      <point x="536" y="694" type="move" name="top"/>
    </contour>
    <contour>
      <point x="536" y="0" type="move" name="bottom"/>
    </contour>
  </outline>
</glyph>
<glyph name="uni0307" format="1">
  <advance width="266"/>
  <unicode hex="0307"/>
  <outline>
    <contour>
      <point x="169" y="595"/>
      <point x="190" y="616"/>
      <point x="190" y="652" type="curve" smooth="yes"/>
      <point x="190" y="688"/>
      <point x="169" y="709"/>
      <point x="133" y="709" type="curve" smooth="yes"/>
      <point x="97" y="709"/>
      <point x="76" y="688"/>
      <point x="76" y="652" type="curve" smooth="yes"/>
      <point x="76" y="616"/>
      <point x="97" y="595"/>
      <point x="133" y="595" type="curve" smooth="yes"/>
    </contour>
    <contour>
      <point x="133" y="674" type="move" name="top"/>
    </contour>
    <contour>
      <point x="133" y="482" type="move" name="_top"/>
    </contour>
  </outline>
</glyph>
<glyph name="alpha" format="1">
  <advance width="574"/>
  <unicode hex="03B1"/>
  <outline>
    <contour>
      <point x="433" y="482" type="line"/>
      <point x="409" y="426" type="line"/>
      <point x="409" y="56" type="line"/>
      <point x="433" y="0" type="line"/>
      <point x="489" y="0" type="line"/>
      <point x="489" y="482" type="line"/>
    </contour>
    <contour>
      <point x="134" y="350"/>
      <point x="190" y="422"/>
      <point x="283" y="422" type="curve" smooth="yes"/>
      <point x="344" y="422"/>
      <point x="392" y="394"/>
      <point x="420" y="346" type="curve"/>
      <point x="457" y="390" type="line"/>
      <point x="422" y="455"/>
      <point x="360" y="492"/>
      <point x="280" y="492" type="curve" smooth="yes"/>
      <point x="144" y="492"/>
      <point x="54" y="388"/>
      <point x="54" y="235" type="curve" smooth="yes"/>
      <point x="54" y="87"/>
      <point x="140" y="-10"/>
      <point x="269" y="-10" type="curve" smooth="yes"/>
      <point x="350" y="-10"/>
      <point x="413" y="30"/>
      <point x="450" y="96" type="curve"/>
      <point x="421" y="132" type="line"/>
      <point x="394" y="87"/>
      <point x="349" y="60"/>
      <point x="292" y="60" type="curve" smooth="yes"/>
      <point x="196" y="60"/>
      <point x="134" y="133"/>
      <point x="134" y="244" type="curve" smooth="yes"/>
    </contour>
  </outline>
</glyph>
<glyph name="lambda" format="1">
  <advance width="498"/>
  <unicode hex="03BB"/>
  <outline>
    <contour>
      <point x="142" y="671"/>
      <point x="129" y="685"/>
      <point x="97" y="685" type="curve" smooth="yes"/>
      <point x="83" y="685"/>
      <point x="65" y="679"/>
      <point x="46" y="672" type="curve"/>
      <point x="28" y="727" type="line"/>
      <point x="55" y="740"/>
      <point x="85" y="749"/>
      <point x="109" y="749" type="curve" smooth="yes"/>
      <point x="172" y="749"/>
      <point x="206" y="715"/>
      <point x="236" y="637" type="curve" smooth="yes"/>
      <point x="484" y="0" type="line"/>
      <point x="401" y="0" type="line"/>
      <point x="228" y="466" type="line"/>
      <point x="281" y="466" type="line"/>
      <point x="110" y="0" type="line"/>
      <point x="27" y="0" type="line"/>
      <point x="220" y="482" type="line"/>
      <point x="165" y="615" type="line" smooth="yes"/>
    </contour>
  </outline>
</glyph>
<glyph name="nu" format="1">
  <advance width="508"/>
  <unicode hex="03BD"/>
  <outline>
    <component base="v"/>
    <contour>
      <point x="254" y="482" type="move" name="top"/>
    </contour>
    <contour>
      <point x="254" y="0" type="move" name="bottom"/>
    </contour>
  </outline>
</glyph>
<glyph name="pi" format="1">
  <advance width="570"/>
  <unicode hex="03C0"/>
  <outline>
    <contour>
      <point x="163" y="0" type="line"/>
      <point x="163" y="415" type="line"/>
      <point x="407" y="415" type="line"/>
      <point x="407" y="0" type="line"/>
      <point x="485" y="0" type="line"/>
      <point x="485" y="482" type="line"/>
      <point x="85" y="482" type="line"/>
      <point x="85" y="0" type="line"/>
    </contour>
  </outline>
</glyph>
<glyph name="rho" format="1">
  <advance width="553"/>
  <unicode hex="03C1"/>
  <outline>
    <contour>
      <point x="63" y="-217" type="line"/>
      <point x="143" y="-217" type="line"/>
      <point x="143" y="244" type="line" smooth="yes"/>
      <point x="143" y="367"/>
      <point x="204" y="422"/>
      <point x="282" y="422" type="curve" smooth="yes"/>
      <point x="363" y="422"/>
      <point x="419" y="371"/>
      <point x="419" y="240" type="curve" smooth="yes"/>
      <point x="419" y="132"/>
      <point x="366" y="60"/>
      <point x="279" y="60" type="curve" smooth="yes"/>
      <point x="207" y="60"/>
      <point x="147" y="107"/>
      <point x="130" y="178" type="curve"/>
      <point x="97" y="123" type="line"/>
      <point x="119" y="39"/>
      <point x="188" y="-10"/>
      <point x="275" y="-10" type="curve" smooth="yes"/>
      <point x="409" y="-10"/>
      <point x="499" y="94"/>
      <point x="499" y="250" type="curve" smooth="yes"/>
      <point x="499" y="407"/>
      <point x="416" y="492"/>
      <point x="283" y="492" type="curve" smooth="yes"/>
      <point x="160" y="492"/>
      <point x="63" y="406"/>
      <point x="63" y="240" type="curve" smooth="yes"/>
    </contour>
  </outline>
</glyph>
<glyph name="tau" format="1">
  <advance width="483"/>
  <unicode hex="03C4"/>
  <outline>
    <contour>
      <point x="279" y="0" type="line"/>
      <point x="279" y="460" type="line"/>
      <point x="200" y="460" type="line"/>
      <point x="200" y="0" type="line"/>
    </contour>
    <contour>
      <point x="463" y="415" type="line"/>
      <point x="463" y="482" type="line"/>
      <point x="18" y="482" type="line"/>
      <point x="18" y="415" type="line"/>
    </contour>
  </outline>
</glyph>
<glyph name="upsilon" format="1">
  <advance width="566"/>
  <unicode hex="03C5"/>
  <outline>
    <contour>
      <point x="396" y="-10"/>
      <point x="476" y="65"/>
      <point x="476" y="179" type="curve" smooth="yes"/>
      <point x="476" y="482" type="line"/>
      <point x="396" y="482" type="line"/>
      <point x="396" y="182" type="line" smooth="yes"/>
      <point x="396" y="103"/>
      <point x="351" y="60"/>
      <point x="275" y="60" type="curve" smooth="yes"/>
      <point x="199" y="60"/>
      <point x="156" y="103"/>
      <point x="156" y="182" type="curve" smooth="yes"/>
      <point x="156" y="482" type="line"/>
      <point x="76" y="482" type="line"/>
      <point x="76" y="166" type="line" smooth="yes"/>
      <point x="76" y="58"/>
      <point x="144" y="-10"/>
      <point x="267" y="-10" type="curve"/>
    </contour>
    <contour>
      <point x="276" y="482" type="move" name="top"/>
    </contour>
  </outline>
</glyph>
<glyph name="uni041B" format="1">
  <advance width="723"/>
  <unicode hex="041B"/>
  <outline>
    <contour>
      <point x="53" y="-10" type="line"/>
      <point x="192" y="20"/>
      <point x="274" y="151"/>
      <point x="274" y="342" type="curve" smooth="yes"/>
      <point x="274" y="624" type="line"/>
      <point x="536" y="624" type="line"/>
      <point x="536" y="0" type="line"/>
      <point x="617" y="0" type="line"/>
      <point x="617" y="694" type="line"/>
      <point x="195" y="694" type="line"/>
      <point x="195" y="342" type="line" smooth="yes"/>
      <point x="195" y="191"/>
      <point x="139" y="87"/>
      <point x="43" y="62" type="curve"/>
    </contour>
  </outline>
</glyph>
<glyph name="uni042D" format="1">
  <advance width="685"/>
  <unicode hex="042D"/>
  <outline>
    <contour>
      <point x="476" y="-10"/>
      <point x="618" y="132"/>
      <point x="618" y="352" type="curve" smooth="yes"/>
      <point x="618" y="566"/>
      <point x="484" y="703"/>
      <point x="277" y="703" type="curve" smooth="yes"/>
      <point x="205" y="703"/>
      <point x="124" y="687"/>
      <point x="58" y="659" type="curve"/>
      <point x="77" y="598" type="line"/>
      <point x="129" y="617"/>
      <point x="201" y="630"/>
      <point x="258" y="630" type="curve" smooth="yes"/>
      <point x="426" y="630"/>
      <point x="533" y="515"/>
      <point x="533" y="335" type="curve" smooth="yes"/>
      <point x="533" y="163"/>
      <point x="435" y="63"/>
      <point x="265" y="63" type="curve" smooth="yes"/>
      <point x="204" y="63"/>
      <point x="134" y="75"/>
      <point x="78" y="95" type="curve"/>
      <point x="54" y="33" type="line"/>
      <point x="105" y="7"/>
      <point x="188" y="-10"/>
      <point x="263" y="-10" type="curve" smooth="yes"/>
    </contour>
    <contour>
      <point x="572" y="323" type="line"/>
      <point x="572" y="391" type="line"/>
      <point x="112" y="391" type="line"/>
      <point x="112" y="323" type="line"/>
    </contour>
    <contour>
      <point x="343" y="694" type="move" name="top"/>
    </contour>
  </outline>
</glyph>
<glyph name="uni0434" format="1">
  <advance width="80"/>
  <unicode hex="0434"/>
  <outline>
    <contour>
      <point x="172" y="12"/>
      <point x="230" y="141"/>
      <point x="230" y="343" type="curve" smooth="yes"/>
      <point x="230" y="415" type="line"/>
      <point x="401" y="415" type="line"/>
      <point x="401" y="23" type="line"/>
      <point x="478" y="23" type="line"/>
      <point x="478" y="482" type="line"/>
      <point x="156" y="482" type="line"/>
      <point x="156" y="342" type="line" smooth="yes"/>
      <point x="156" y="194"/>
      <point x="122" y="90"/>
      <point x="60" y="65" type="curve"/>
      <point x="72" y="0" type="line"/>
    </contour>
    <contour>
      <point x="99" y="-126" type="line"/>
      <point x="99" y="0" type="line"/>
      <point x="483" y="0" type="line"/>
      <point x="483" y="-126" type="line"/>
      <point x="555" y="-126" type="line"/>
      <point x="555" y="67" type="line"/>
      <point x="27" y="67" type="line"/>
      <point x="27" y="-126" type="line"/>
    </contour>
  </outline>
</glyph>
<glyph name="uni043E" format="1">
  <advance width="569"/>
  <unicode hex="043E"/>
  <outline>
    <component base="o"/>
    <contour>
      <point x="285" y="482" type="move" name="top"/>
    </contour>
  </outline>
</glyph>
<glyph name="uni045B" format="1">
  <advance width="570"/>
  <unicode hex="045B"/>
  <outline>
    <component base="hbar"/>
    <contour>
      <point x="449" y="0" type="move" name="bottom"/>
    </contour>
  </outline>
</glyph>
<glyph name="uni0462" format="1">
  <advance width="725"/>
  <unicode hex="0462"/>
  <outline>
    <contour>
      <point x="414" y="0" type="line" smooth="yes"/>
      <point x="568" y="0"/>
      <point x="668" y="85"/>
      <point x="668" y="217" type="curve" smooth="yes"/>
      <point x="668" y="339"/>
      <point x="575" y="427"/>
      <point x="447" y="427" type="curve" smooth="yes"/>
      <point x="221" y="427" type="line"/>
      <point x="221" y="355" type="line"/>
      <point x="438" y="355" type="line" smooth="yes"/>
      <point x="522" y="355"/>
      <point x="583" y="290"/>
      <point x="583" y="200" type="curve" smooth="yes"/>
      <point x="583" y="115"/>
      <point x="529" y="72"/>
      <point x="424" y="72" type="curve" smooth="yes"/>
      <point x="255" y="72" type="line"/>
      <point x="255" y="694" type="line"/>
      <point x="172" y="694" type="line"/>
      <point x="172" y="0" type="line"/>
    </contour>
    <contour>
      <point x="427" y="523" type="line"/>
      <point x="427" y="588" type="line"/>
      <point x="47" y="588" type="line"/>
      <point x="47" y="523" type="line"/>
    </contour>
  </outline>
</glyph>
<glyph name="uni04A0" format="1">
  <advance width="738"/>
  <unicode hex="04A0"/>
  <outline>
    <contour>
      <point x="705" y="0" type="line"/>
      <point x="447" y="380" type="line"/>
      <point x="452" y="358" type="line"/>
      <point x="692" y="694" type="line"/>
      <point x="604" y="694" type="line"/>
      <point x="363" y="361" type="line"/>
      <point x="610" y="0" type="line"/>
    </contour>
    <contour>
      <point x="292" y="0" type="line"/>
      <point x="292" y="694" type="line"/>
      <point x="210" y="694" type="line"/>
      <point x="210" y="0" type="line"/>
    </contour>
    <contour>
      <point x="413" y="323" type="line"/>
      <point x="413" y="395" type="line"/>
      <point x="243" y="395" type="line"/>
      <point x="243" y="323" type="line"/>
    </contour>
    <contour>
      <point x="292" y="622" type="line"/>
      <point x="292" y="694" type="line"/>
      <point x="34" y="694" type="line"/>
      <point x="34" y="622" type="line"/>
    </contour>
  </outline>
</glyph>
<glyph name="uni1E9E" format="1">
  <advance width="721"/>
  <unicode hex="1E9E"/>
  <outline>
    <contour>
      <point x="578" y="-10"/>
      <point x="664" y="66"/>
      <point x="664" y="181" type="curve" smooth="yes"/>
      <point x="664" y="283"/>
      <point x="596" y="364"/>
      <point x="468" y="388" type="curve"/>
      <point x="478" y="352" type="line"/>
      <point x="614" y="583" type="line"/>
      <point x="581" y="657"/>
      <point x="485" y="704"/>
      <point x="368" y="704" type="curve" smooth="yes"/>
      <point x="203" y="704"/>
      <point x="95" y="610"/>
      <point x="95" y="468" type="curve" smooth="yes"/>
      <point x="95" y="0" type="line"/>
      <point x="178" y="0" type="line"/>
      <point x="178" y="468" type="line" smooth="yes"/>
      <point x="178" y="566"/>
      <point x="248" y="631"/>
      <point x="363" y="631" type="curve" smooth="yes"/>
      <point x="436" y="631"/>
      <point x="497" y="605"/>
      <point x="520" y="565" type="curve"/>
      <point x="385" y="332" type="line"/>
      <point x="510" y="312"/>
      <point x="579" y="255"/>
      <point x="579" y="171" type="curve" smooth="yes"/>
      <point x="579" y="102"/>
      <point x="533" y="63"/>
      <point x="454" y="63" type="curve" smooth="yes"/>
      <point x="412" y="63"/>
      <point x="359" y="74"/>
      <point x="319" y="91" type="curve"/>
      <point x="294" y="26" type="line"/>
      <point x="338" y="3"/>
      <point x="394" y="-10"/>
      <point x="449" y="-10" type="curve" smooth="yes"/>
    </contour>
  </outline>
</glyph>
<glyph name="endash" format="1">
  <advance width="670"/>
  <unicode hex="2013"/>
  <outline>
    <contour>
      <point x="585" y="220" type="line"/>
      <point x="585" y="287" type="line"/>
      <point x="85" y="287" type="line"/>
      <point x="85" y="220" type="line"/>
    </contour>
  </outline>
</glyph>
<glyph name="guilsinglright" format="1">
  <advance width="327"/>
  <unicode hex="203A"/>
  <outline>
    <contour>
      <point x="136" y="30" type="line"/>
      <point x="277" y="241" type="line"/>
      <point x="135" y="452" type="line"/>
      <point x="47" y="452" type="line"/>
      <point x="205" y="215" type="line"/>
      <point x="205" y="262" type="line"/>
      <point x="55" y="30" type="line"/>
    </contour>
  </outline>
</glyph>
<glyph name="uni20AD" format="1">
  <advance width="720"/>
  <unicode hex="20AD"/>
  <outline>
    <contour>
      <point x="608" y="329" type="line"/>
      <point x="608" y="389" type="line"/>
      <point x="76" y="389" type="line"/>
      <point x="76" y="329" type="line"/>
    </contour>
    <contour>
      <point x="646" y="0" type="line"/>
      <point x="313" y="380" type="line"/>
      <point x="319" y="358" type="line"/>
      <point x="634" y="694" type="line"/>
      <point x="538" y="694" type="line"/>
      <point x="232" y="361" type="line"/>
      <point x="544" y="0" type="line"/>
    </contour>
    <contour>
      <point x="235" y="0" type="line"/>
      <point x="235" y="694" type="line"/>
      <point x="152" y="694" type="line"/>
      <point x="152" y="0" type="line"/>
    </contour>
  </outline>
</glyph>
<glyph name="notidentical" format="1">
  <advance width="671"/>
  <unicode hex="2262"/>
  <outline>
    <contour>
      <point x="529" y="614" type="line"/>
      <point x="475" y="645" type="line"/>
      <point x="150" y="60" type="line"/>
      <point x="200" y="32" type="line"/>
    </contour>
    <contour>
      <point x="568" y="476" type="line"/>
      <point x="568" y="545" type="line"/>
      <point x="103" y="545" type="line"/>
      <point x="103" y="476" type="line"/>
    </contour>
    <contour>
      <point x="568" y="132" type="line"/>
      <point x="568" y="201" type="line"/>
      <point x="103" y="201" type="line"/>
      <point x="103" y="132" type="line"/>
    </contour>
    <contour>
      <point x="568" y="304" type="line"/>
      <point x="568" y="373" type="line"/>
      <point x="103" y="373" type="line"/>
      <point x="103" y="304" type="line"/>
    </contour>
  </outline>
</glyph>
<glyph name="gravecomb.loclVIET" format="1">
  <advance width="0"/>
  <outline>
    <contour>
      <point x="208" y="597" type="line"/>
      <point x="91" y="743" type="line"/>
      <point x="33" y="687" type="line"/>
      <point x="174" y="564" type="line"/>
    </contour>
    <contour>
      <point x="146" y="662" type="move" name="top"/>
    </contour>
    <contour>
      <point x="170" y="482" type="move" name="_top"/>
    </contour>
  </outline>
</glyph>
<glyph name="six.lf" format="1">
  <advance width="603"/>
  <outline>
    <contour>
      <point x="449" y="-10"/>
      <point x="542" y="80"/>
      <point x="542" y="213" type="curve" smooth="yes"/>
      <point x="542" y="338"/>
      <point x="460" y="424"/>
      <point x="340" y="424" type="curve" smooth="yes"/>
      <point x="239" y="424"/>
      <point x="159" y="364"/>
      <point x="113" y="256" type="curve"/>
      <point x="135" y="213" type="line"/>
      <point x="169" y="302"/>
      <point x="232" y="352"/>
      <point x="311" y="352" type="curve" smooth="yes"/>
      <point x="398" y="352"/>
      <point x="457" y="291"/>
      <point x="457" y="199" type="curve" smooth="yes"/>
      <point x="457" y="115"/>
      <point x="408" y="63"/>
      <point x="327" y="63" type="curve" smooth="yes"/>
      <point x="218" y="63"/>
      <point x="158" y="159"/>
      <point x="158" y="334" type="curve" smooth="yes"/>
      <point x="158" y="535"/>
      <point x="235" y="631"/>
      <point x="364" y="631" type="curve" smooth="yes"/>
      <point x="415" y="631"/>
      <point x="471" y="618"/>
      <point x="508" y="595" type="curve"/>
      <point x="532" y="660" type="line"/>
      <point x="497" y="687"/>
      <point x="438" y="704"/>
      <point x="373" y="704" type="curve" smooth="yes"/>
      <point x="184" y="704"/>
      <point x="68" y="567"/>
      <point x="68" y="328" type="curve" smooth="yes"/>
      <point x="68" y="110"/>
      <point x="165" y="-10"/>
      <point x="317" y="-10" type="curve" smooth="yes"/>
    </contour>
  </outline>
</glyph>
<glyph name="uni0304.narrow" format="1">
  <advance width="390"/>
  <outline>
    <contour>
      <point x="305" y="606" type="line"/>
      <point x="305" y="670" type="line"/>
      <point x="85" y="670" type="line"/>
      <point x="85" y="606" type="line"/>
    </contour>
    <contour>
      <point x="195" y="670" type="move" name="top"/>
    </contour>
    <contour>
      <point x="195" y="482" type="move" name="_top"/>
    </contour>
  </outline>
</glyph>
<glyph name="uni030A.case" format="1">
  <advance width="346"/>
  <outline>
    <component base="uni030A" yOffset="187"/>
    <contour>
      <point x="173" y="950" type="move" name="top"/>
    </contour>
    <contour>
      <point x="173" y="694" type="move" name="_top"/>
    </contour>
  </outline>
</glyph>
<glyph name="uni030B.case" format="1">
  <advance width="475"/>
  <outline>
    <contour>
      <point x="205" y="885" type="line"/>
      <point x="145" y="939" type="line"/>
      <point x="36" y="800" type="line"/>
      <point x="75" y="764" type="line"/>
    </contour>
    <contour>
      <point x="395" y="885" type="line"/>
      <point x="335" y="939" type="line"/>
      <point x="226" y="800" type="line"/>
      <point x="265" y="764" type="line"/>
    </contour>
    <contour>
      <point x="210" y="926" type="move" name="top"/>
    </contour>
    <contour>
      <point x="210" y="694" type="move" name="_top"/>
    </contour>
  </outline>
</glyph>
<glyph name="uni0311.case" format="1">
  <advance width="408"/>
  <outline>
    <component base="uni0311" xOffset="-8" yOffset="192"/>
    <contour>
      <point x="197" y="908" type="move" name="top"/>
    </contour>
    <contour>
      <point x="197" y="694" type="move" name="_top"/>
    </contour>
  </outline>
</glyph>
<glyph name="zero.dnom" format="1">
  <advance width="74"/>
  <note>
    zero
  </note>
  <outline>
    <contour>
      <point x="362" y="-7"/>
      <point x="437" y="88"/>
      <point x="437" y="238" type="curve" smooth="yes"/>
      <point x="437" y="384"/>
      <point x="364" y="478"/>
      <point x="248" y="478" type="curve" smooth="yes"/>
      <point x="132" y="478"/>
      <point x="55" y="384"/>
      <point x="55" y="233" type="curve" smooth="yes"/>
      <point x="55" y="87"/>
      <point x="128" y="-7"/>
      <point x="244" y="-7" type="curve" smooth="yes"/>
    </contour>
    <contour>
      <point x="177" y="57"/>
      <point x="132" y="127"/>
      <point x="132" y="238" type="curve" smooth="yes"/>
      <point x="132" y="346"/>
      <point x="176" y="414"/>
      <point x="245" y="414" type="curve" smooth="yes"/>
      <point x="316" y="414"/>
      <point x="360" y="343"/>
      <point x="360" y="233" type="curve" smooth="yes"/>
      <point x="360" y="126"/>
      <point x="317" y="57"/>
      <point x="248" y="57" type="curve" smooth="yes"/>
    </contour>
    <contour>
      <point x="248" y="237" type="move" name="slash"/>
    </contour>
  </outline>
</glyph>
